<svg width="16" height="16" viewBox="0 0 16 16" fill="none" xmlns="http://www.w3.org/2000/svg">
<path d="M9.20565 2.98391L12.3168 6.09488M1.25825 11.0024L0.650024 14.65L4.29783 14.0418C4.93157 13.9366 5.51653 13.6358 5.97084 13.1817L14.199 4.95315C14.4878 4.66437 14.65 4.2727 14.65 3.86432C14.65 3.45593 14.4878 3.06427 14.199 2.77548L12.526 1.10178C12.383 0.958569 12.2131 0.844956 12.0261 0.76744C11.8392 0.689924 11.6387 0.650024 11.4363 0.650024C11.2339 0.650024 11.0335 0.689924 10.8465 0.76744C10.6595 0.844956 10.4897 0.958569 10.3467 1.10178L2.11848 9.33028C1.66442 9.78436 1.36366 10.369 1.25825 11.0024Z" stroke="black" stroke-width="1.3" stroke-linecap="round" stroke-linejoin="round"/>
</svg>
