<svg width="16" height="20" viewBox="0 0 16 20" fill="none" xmlns="http://www.w3.org/2000/svg">
<path d="M11.75 4.75C11.75 5.81087 11.3286 6.82828 10.5784 7.57843C9.82828 8.32857 8.81087 8.75 7.75 8.75C6.68913 8.75 5.67172 8.32857 4.92157 7.57843C4.17143 6.82828 3.75 5.81087 3.75 4.75C3.75 3.68913 4.17143 2.67172 4.92157 1.92157C5.67172 1.17143 6.68913 0.75 7.75 0.75C8.81087 0.75 9.82828 1.17143 10.5784 1.92157C11.3286 2.67172 11.75 3.68913 11.75 4.75ZM7.75 11.75C5.89348 11.75 4.11301 12.4875 2.80025 13.8003C1.4875 15.113 0.75 16.8935 0.75 18.75H14.75C14.75 16.8935 14.0125 15.113 12.6997 13.8003C11.387 12.4875 9.60652 11.75 7.75 11.75Z" stroke="#434343" stroke-width="1.5" stroke-linecap="round" stroke-linejoin="round"/>
</svg>
