<svg width="28" height="28" viewBox="0 0 28 28" fill="none" xmlns="http://www.w3.org/2000/svg">
<path d="M9.2085 4.31689C9.94366 4.31689 10.6718 4.46142 11.3511 4.74268C12.0304 5.02407 12.6485 5.43662 13.1685 5.95654L13.647 6.43506L13.9995 6.78857L14.353 6.43604L14.8315 5.9585H14.8325C15.8826 4.90832 17.3064 4.31806 18.7915 4.31787C19.5269 4.31782 20.2556 4.46226 20.9351 4.74365C21.6144 5.025 22.2315 5.43766 22.7515 5.95752C23.2715 6.47744 23.6848 7.0946 23.9663 7.77393C24.2478 8.45335 24.392 9.18206 24.3921 9.91748C24.3921 10.6527 24.2476 11.3807 23.9663 12.0601C23.72 12.6547 23.3732 13.2023 22.9419 13.6782L22.7524 13.8774L14.0005 22.6274L5.24854 13.8765C4.72861 13.3565 4.31606 12.7384 4.03467 12.0591C3.75341 11.3799 3.60889 10.6517 3.60889 9.9165C3.6089 9.18131 3.75337 8.45318 4.03467 7.77393C4.31608 7.09453 4.72855 6.47653 5.24854 5.95654C5.76852 5.43656 6.38653 5.02409 7.06592 4.74268C7.74517 4.46138 8.4733 4.31691 9.2085 4.31689Z" stroke="#FF4545"/>
<path d="M4.89546 14.2298C4.32905 13.6634 3.87974 12.991 3.5732 12.2509C3.26666 11.5108 3.10889 10.7177 3.10889 9.91663C3.10889 9.1156 3.26666 8.32242 3.5732 7.58236C3.87974 6.84231 4.32905 6.16988 4.89546 5.60347C5.46187 5.03705 6.1343 4.58775 6.87436 4.28121C7.61441 3.97467 8.4076 3.81689 9.20863 3.81689C10.0097 3.81689 10.8028 3.97467 11.5429 4.28121C12.2829 4.58775 12.9554 5.03705 13.5218 5.60347L14.0001 6.0818L14.4785 5.60463C15.6224 4.46056 17.1739 3.81776 18.7918 3.81765C19.5929 3.81759 20.3861 3.97533 21.1263 4.28184C21.8664 4.58835 22.5389 5.03764 23.1054 5.60405C23.6719 6.17046 24.1212 6.84291 24.4279 7.58299C24.7345 8.32308 24.8923 9.11631 24.8924 9.91739C24.8924 10.7185 24.7347 11.5117 24.4282 12.2518C24.1217 12.992 23.6724 13.6645 23.106 14.231L14.0001 23.3345L4.89546 14.2298Z" fill="#FF4545" stroke="#FF4545" stroke-linecap="square"/>
</svg>
